<svg id="Layer_1" data-name="Layer 1" xmlns="http://www.w3.org/2000/svg" viewBox="0 0 117.17 87.26"><defs><style>.cls-1{fill:#010101;}</style></defs><title>tractor_icon</title><path class="cls-1" d="M49.64,3.84c3.57,8.75,7,17.57,10.58,26.3,5,0,10,0,15,0,0-8,0-16,0-24.06,2,0,4,0,6,0,0,8,0,16,0,24,5.91.22,11.83,0,17.74.09,2.13.07,4.45-.34,6.37.82a6.28,6.28,0,0,1,3.05,5.62c0,6.21,0,12.42,0,18.63a19.62,19.62,0,0,0-11.28-.27,18.3,18.3,0,0,0-12,11.31c-13.32,0-26.65,0-40,0A23.94,23.94,0,0,0,23.17,42.31a23.9,23.9,0,0,0-10.39,1.32c-1.26-2.47-2.51-4.94-3.71-7.43,1-2.73,3.32-5.08,3-8.14,0-7.34,0-14.69,0-22a5.81,5.81,0,0,1,2.34-4.71A7.23,7.23,0,0,1,19.1,0h22a21.29,21.29,0,0,1,4.29.22A6.07,6.07,0,0,1,49.64,3.84ZM24.35,6.07A3,3,0,0,0,21.1,9q0,9.13,0,18.26a3,3,0,0,0,3.23,2.88c8.32,0,16.65,0,25,0A3,3,0,0,0,52,26.06Q48.49,17.11,44.9,8.18a3,3,0,0,0-2.39-2C36.46,6,30.4,6.11,24.35,6.07Z" transform="translate(0 0)"/><path class="cls-1" d="M39.26,55.63a21.08,21.08,0,0,1-9.37,29.72A21.53,21.53,0,0,1,17.44,87a21.29,21.29,0,0,1-14-9.3A21.06,21.06,0,1,1,39.26,55.63Zm-27.54,3a12,12,0,1,0,11-4.33A12.14,12.14,0,0,0,11.72,58.67Z" transform="translate(0 0)"/><path class="cls-1" d="M116.84,69.14a15,15,0,0,1-3.72,13.36,15.13,15.13,0,0,1-21.82.16,15,15,0,1,1,25.54-13.53ZM95,71.7A7.23,7.23,0,0,0,99.44,79a8.14,8.14,0,0,0,3.93.4A7.22,7.22,0,1,0,95,71.7Z" transform="translate(0 0)"/></svg>