<?xml version="1.0" encoding="utf-8"?>
<!-- Generator: Adobe Illustrator 20.1.0, SVG Export Plug-In . SVG Version: 6.00 Build 0)  -->
<!DOCTYPE svg PUBLIC "-//W3C//DTD SVG 1.1//EN" "http://www.w3.org/Graphics/SVG/1.1/DTD/svg11.dtd">
<svg version="1.1" id="Layer_1" xmlns="http://www.w3.org/2000/svg" xmlns:xlink="http://www.w3.org/1999/xlink" x="0px" y="0px"
	 viewBox="0 0 117.2 87.3" style="enable-background:new 0 0 117.2 87.3;" xml:space="preserve">
<style type="text/css">
	.st0{fill:#3498DB;}
</style>
<title>tractor_icon</title>
<path class="st0" d="M49.6,3.8c3.6,8.8,7,17.6,10.6,26.3c5,0,10,0,15,0c0-8,0-16,0-24.1c2,0,4,0,6,0c0,8,0,16,0,24
	c5.9,0.2,11.8,0,17.7,0.1c2.1,0.1,4.4-0.3,6.4,0.8c2,1.2,3.1,3.3,3.1,5.6c0,6.2,0,12.4,0,18.6c-3.7-1.2-7.6-1.3-11.3-0.3
	c-5.6,1.7-10,5.8-12,11.3c-13.3,0-26.7,0-40,0c0.1-12.5-9.5-22.9-21.9-24c-3.5-0.3-7.1,0.1-10.4,1.3c-1.3-2.5-2.5-4.9-3.7-7.4
	c1-2.7,3.3-5.1,3-8.1c0-7.3,0-14.7,0-22c0-1.9,0.9-3.6,2.3-4.7c1.4-1,3-1.5,4.7-1.4h22c1.4-0.1,2.9,0,4.3,0.2
	C47.3,0.7,48.9,2,49.6,3.8z M24.4,6.1c-1.7-0.1-3.1,1.1-3.2,2.7c0,0.1,0,0.1,0,0.2c0,6.1,0,12.2,0,18.3c0.1,1.7,1.5,2.9,3.1,2.9
	c0,0,0.1,0,0.1,0c8.3,0,16.6,0,25,0c1.7-0.1,2.9-1.5,2.9-3.1c0-0.3-0.1-0.6-0.2-1c-2.3-6-4.7-11.9-7.1-17.9c-0.4-1.1-1.3-1.8-2.4-2
	C36.5,6,30.4,6.1,24.4,6.1z"/>
<path class="st0" d="M39.3,55.6c5.8,10.1,2.4,23-7.6,28.8c-0.6,0.3-1.1,0.6-1.7,0.9c-3.9,1.8-8.2,2.3-12.4,1.7
	c-5.7-1-10.8-4.4-14-9.3C-3.1,68.1-0.7,55,8.9,48.4s22.7-4.1,29.3,5.5C38.6,54.5,38.9,55.1,39.3,55.6z M11.7,58.6
	c-4.2,5.2-3.4,12.7,1.8,16.9c5.2,4.2,12.7,3.4,16.9-1.8c4.2-5.2,3.4-12.7-1.8-16.9c-1.7-1.4-3.7-2.3-5.9-2.6
	C18.5,53.7,14.4,55.4,11.7,58.6L11.7,58.6z"/>
<path class="st0" d="M116.8,69.1c1,4.8-0.4,9.8-3.7,13.4c-5.7,6.1-15.3,6.3-21.4,0.6c-0.1-0.1-0.3-0.3-0.4-0.4
	c-5.7-6-5.4-15.5,0.6-21.2c6-5.7,15.5-5.4,21.2,0.6C115,64,116.3,66.5,116.8,69.1L116.8,69.1z M95,71.7c-0.3,3.1,1.5,6.1,4.4,7.3
	c1.3,0.5,2.6,0.6,3.9,0.4c3.9-0.6,6.6-4.4,6-8.3c-0.6-3.9-4.4-6.6-8.3-6C97.7,65.7,95.3,68.4,95,71.7z"/>
</svg>
