<svg xmlns="http://www.w3.org/2000/svg" viewBox="0 0 658.57 116.14"><defs><style>.cls-1{isolation:isolate;}.cls-2{fill:#e0e0e0;mix-blend-mode:multiply;}.cls-3{fill:#f7ba2e;}.cls-4{fill:#5f6062;}.cls-5{fill:#bdbec0;}</style></defs><title>bridge</title><g class="cls-1"><g id="Layer_2" data-name="Layer 2"><g id="Layer_1-2" data-name="Layer 1"><path class="cls-2" d="M0,53.49v62.65H37c0-20.27,25.22-36.7,56.34-36.7s56.34,16.43,56.34,36.7h43.29c0-20.27,25.22-36.7,56.34-36.7s56.34,16.43,56.34,36.7h43.29c0-20.27,25.22-36.7,56.34-36.7s56.34,16.43,56.34,36.7h43.29c0-20.27,25.22-36.7,56.34-36.7s56.34,16.43,56.34,36.7h37V53.49Z"/><path class="cls-3" d="M0,20v96.18H37a56.34,56.34,0,1,1,112.68,0h43.29a56.34,56.34,0,1,1,112.68,0h43.29a56.34,56.34,0,0,1,112.68,0h43.29a56.34,56.34,0,0,1,112.68,0h37V20Z"/><rect class="cls-2" y="19.96" width="654.5" height="19.77"/><rect class="cls-4" width="4.85" height="19.96"/><rect class="cls-4" x="23.2" width="4.85" height="19.96"/><rect class="cls-4" x="46.4" width="4.85" height="19.96"/><rect class="cls-4" x="69.6" width="4.85" height="19.96"/><rect class="cls-4" x="92.81" width="4.85" height="19.96"/><rect class="cls-4" x="116.01" width="4.85" height="19.96"/><rect class="cls-4" x="139.21" width="4.85" height="19.96"/><rect class="cls-4" x="162.41" width="4.85" height="19.96"/><rect class="cls-4" x="185.61" width="4.85" height="19.96"/><rect class="cls-4" x="208.81" width="4.85" height="19.96"/><rect class="cls-4" x="232.02" width="4.85" height="19.96"/><rect class="cls-4" x="255.22" width="4.85" height="19.96"/><rect class="cls-4" x="278.42" width="4.85" height="19.96"/><rect class="cls-4" x="301.62" width="4.85" height="19.96"/><rect class="cls-4" x="324.82" width="4.85" height="19.96"/><rect class="cls-4" x="348.02" width="4.85" height="19.96"/><rect class="cls-4" x="371.23" width="4.85" height="19.96"/><rect class="cls-4" x="394.43" width="4.85" height="19.96"/><rect class="cls-4" x="417.63" width="4.85" height="19.96"/><rect class="cls-4" x="440.83" width="4.85" height="19.96"/><rect class="cls-4" x="464.03" width="4.85" height="19.96"/><rect class="cls-4" x="487.23" width="4.85" height="19.96"/><rect class="cls-4" x="510.43" width="4.85" height="19.96"/><rect class="cls-4" x="533.64" width="4.85" height="19.96"/><rect class="cls-4" x="556.84" width="4.85" height="19.96"/><rect class="cls-4" x="580.04" width="4.85" height="19.96"/><rect class="cls-4" x="603.24" width="4.85" height="19.96"/><rect class="cls-4" x="626.44" width="4.85" height="19.96"/><rect class="cls-4" x="649.65" width="4.85" height="19.96"/><rect class="cls-5" width="658.57" height="9.98"/></g></g></g></svg>