<svg xmlns="http://www.w3.org/2000/svg" viewBox="0 0 235.32 315.38"><defs><style>.cls-1{isolation:isolate;}.cls-2{fill:#f7ba2e;}.cls-3{fill:#d24e1e;}.cls-4{fill:#e0e0e0;mix-blend-mode:multiply;}.cls-5{fill:#72dde7;}.cls-6{fill:#40d1df;}.cls-7{fill:#435073;}.cls-8{fill:#38466b;}.cls-9{fill:#f7952e;}</style></defs><title>building3</title><g class="cls-1"><g id="Layer_2" data-name="Layer 2"><g id="Layer_1-2" data-name="Layer 1"><rect class="cls-2" width="64.46" height="10.62"/><rect class="cls-3" y="10.62" width="64.46" height="304.76"/><rect class="cls-4" y="305.59" width="64.46" height="9.8"/><rect class="cls-5" x="40.31" y="258.31" width="13.13" height="13.13"/><rect class="cls-6" x="11.25" y="258.31" width="13.13" height="13.13"/><rect class="cls-6" x="40.31" y="231.27" width="13.13" height="13.13"/><rect class="cls-5" x="11.25" y="231.27" width="13.13" height="13.13"/><rect class="cls-6" x="40.31" y="204.23" width="13.13" height="13.13"/><rect class="cls-6" x="11.25" y="204.23" width="13.13" height="13.13"/><rect class="cls-5" x="40.31" y="177.2" width="13.13" height="13.12"/><rect class="cls-6" x="11.25" y="177.2" width="13.13" height="13.12"/><rect class="cls-6" x="40.31" y="150.16" width="13.13" height="13.13"/><rect class="cls-5" x="11.25" y="150.16" width="13.13" height="13.13"/><rect class="cls-5" x="40.31" y="123.12" width="13.13" height="13.13"/><rect class="cls-6" x="11.25" y="123.12" width="13.13" height="13.13"/><rect class="cls-5" x="40.31" y="96.09" width="13.13" height="13.13"/><rect class="cls-6" x="11.25" y="96.09" width="13.13" height="13.13"/><rect class="cls-6" x="40.31" y="69.05" width="13.13" height="13.12"/><rect class="cls-5" x="11.25" y="69.05" width="13.13" height="13.12"/><rect class="cls-6" x="40.31" y="44.33" width="13.13" height="13.13"/><rect class="cls-5" x="11.25" y="44.33" width="13.13" height="13.13"/><rect class="cls-6" x="40.31" y="19.6" width="13.13" height="13.12"/><rect class="cls-5" x="11.25" y="19.6" width="13.13" height="13.12"/><rect class="cls-7" x="21.21" y="283.41" width="22.03" height="31.97"/><rect class="cls-4" x="21.21" y="283.41" width="11.02" height="31.97"/><rect class="cls-7" x="63.09" y="108.55" width="93.4" height="206.83"/><rect class="cls-8" x="63.09" y="294.3" width="93.4" height="21.09"/><rect class="cls-6" x="102.97" y="120.97" width="32.34" height="160.75"/><rect class="cls-5" x="75.57" y="120.97" width="14.21" height="158.05"/><rect class="cls-8" x="102" y="134.91" width="62.65" height="10.54"/><rect class="cls-8" x="102" y="157.63" width="62.65" height="10.54"/><rect class="cls-8" x="102" y="180.34" width="62.65" height="10.54"/><rect class="cls-8" x="102" y="203.05" width="62.65" height="10.54"/><rect class="cls-8" x="102" y="225.76" width="62.65" height="10.55"/><rect class="cls-8" x="102" y="248.47" width="62.65" height="10.54"/><rect class="cls-8" x="102" y="271.18" width="62.65" height="10.54"/><rect class="cls-7" x="66.09" y="134.91" width="34.94" height="10.54"/><rect class="cls-7" x="66.09" y="157.63" width="34.94" height="10.54"/><rect class="cls-7" x="66.09" y="180.34" width="34.94" height="10.54"/><rect class="cls-7" x="66.09" y="203.05" width="34.94" height="10.54"/><rect class="cls-7" x="66.09" y="225.76" width="34.94" height="10.55"/><rect class="cls-7" x="66.09" y="248.47" width="34.94" height="10.54"/><rect class="cls-7" x="66.09" y="271.18" width="34.94" height="10.54"/><rect class="cls-2" x="136.64" y="221.26" width="93.75" height="94.13"/><rect class="cls-9" x="136.64" y="305.59" width="93.75" height="9.8"/><rect class="cls-3" x="131.72" y="214.67" width="103.6" height="7.33"/><rect class="cls-6" x="147.89" y="232.69" width="13.12" height="13.13"/><rect class="cls-5" x="161.02" y="232.69" width="13.13" height="13.13"/><rect class="cls-6" x="192.89" y="232.69" width="13.13" height="13.13"/><rect class="cls-5" x="206.02" y="232.69" width="13.12" height="13.13"/><rect class="cls-6" x="147.89" y="258.05" width="13.12" height="13.13"/><rect class="cls-5" x="161.02" y="258.05" width="13.13" height="13.13"/><rect class="cls-6" x="192.89" y="258.05" width="13.13" height="13.13"/><rect class="cls-5" x="206.02" y="258.05" width="13.12" height="13.13"/><rect class="cls-5" x="204.26" y="283.41" width="13.13" height="13.13"/><rect class="cls-6" x="148.48" y="283.41" width="13.13" height="13.13"/><rect class="cls-3" x="173.32" y="283.41" width="22.03" height="31.97"/><rect class="cls-4" x="173.32" y="283.41" width="11.02" height="31.97"/></g></g></g></svg>