<svg xmlns="http://www.w3.org/2000/svg" viewBox="0 0 263.15 349.18"><defs><style>.cls-1{isolation:isolate;}.cls-2{fill:#bc3f1e;}.cls-3{fill:#d24e1e;}.cls-4{fill:#40d1df;}.cls-5{fill:#72dde7;}.cls-6{fill:#435073;}.cls-7{fill:#38466b;}.cls-8{fill:#f7ba2e;}.cls-9{fill:#f7952e;}.cls-10{fill:#e0e0e0;mix-blend-mode:multiply;}</style></defs><title>building5</title><g class="cls-1"><g id="Layer_2" data-name="Layer 2"><g id="Layer_1-2" data-name="Layer 1"><rect class="cls-2" x="87.05" y="3.94" width="56.06" height="40.38"/><rect class="cls-2" x="87.05" y="38.47" width="56.06" height="5.86"/><rect class="cls-3" x="84.11" width="61.94" height="4.38"/><rect class="cls-4" x="97.85" y="10.77" width="7.85" height="7.85"/><rect class="cls-5" x="124.45" y="10.77" width="7.85" height="7.85"/><rect class="cls-4" x="97.85" y="25.94" width="7.85" height="7.85"/><rect class="cls-5" x="124.45" y="25.94" width="7.85" height="7.85"/><rect class="cls-5" x="94.94" y="64.34" width="40.81" height="10.05"/><rect class="cls-4" x="94.94" y="86" width="40.81" height="10.05"/><rect class="cls-5" x="94.94" y="107.65" width="40.81" height="10.05"/><rect class="cls-4" x="94.94" y="129.3" width="40.81" height="10.05"/><rect class="cls-5" x="94.94" y="150.95" width="40.81" height="10.05"/><path class="cls-3" d="M83.13,44.24V329.07H147V44.24Zm52.62,267.83H94.94V302h40.81Zm0-21.65H94.94V280.36h40.81Zm0-21.65H94.94V258.7h40.81Zm0-21.65H94.94V237.05h40.81Zm0-21.65H94.94V215.4h40.81Zm0-31.2v9.54H94.94V193.75h40.81Zm0-21.65v9.54H94.94V172.1h40.81ZM94.94,64.34h40.81V74.4H94.94Zm0,21.65h40.81V96H94.94Zm0,21.65h40.81V117.7H94.94Zm0,21.65h40.81v10.05H94.94Zm0,21.65h40.81V161H94.94Z"/><rect class="cls-2" x="83.13" y="329.07" width="63.9" height="20.11"/><polygon class="cls-5" points="135.75 172.61 135.75 172.09 94.94 172.09 94.94 172.61 94.94 182.15 135.75 182.15 135.75 172.61"/><polygon class="cls-4" points="135.75 194.26 135.75 193.75 94.94 193.75 94.94 194.26 94.94 203.8 135.75 203.8 135.75 194.26"/><rect class="cls-5" x="94.94" y="215.4" width="40.81" height="10.05"/><rect class="cls-4" x="94.94" y="237.05" width="40.81" height="10.05"/><rect class="cls-5" x="94.94" y="258.7" width="40.81" height="10.05"/><rect class="cls-4" x="94.94" y="280.36" width="40.81" height="10.05"/><rect class="cls-5" x="94.94" y="302.01" width="40.81" height="10.05"/><rect class="cls-2" x="75.16" y="49.49" width="79.84" height="6.11"/><rect class="cls-6" y="132.67" width="83.13" height="216.51"/><rect class="cls-7" y="327.11" width="83.13" height="22.07"/><rect class="cls-5" x="12.97" y="154.75" width="57.78" height="11.04"/><rect class="cls-4" x="12.97" y="178.52" width="57.78" height="11.04"/><rect class="cls-5" x="12.97" y="202.3" width="57.78" height="11.04"/><rect class="cls-4" x="12.97" y="226.07" width="57.78" height="11.04"/><rect class="cls-5" x="12.97" y="249.84" width="57.78" height="11.04"/><rect class="cls-4" x="12.97" y="273.62" width="57.78" height="11.04"/><rect class="cls-5" x="12.97" y="297.39" width="57.78" height="11.04"/><rect class="cls-8" x="157.05" y="190.09" width="81.5" height="58.71"/><rect class="cls-9" x="157.05" y="240.3" width="81.5" height="8.51"/><rect class="cls-3" x="152.77" y="184.36" width="90.06" height="6.37"/><rect class="cls-4" x="166.83" y="200.03" width="11.41" height="11.41"/><rect class="cls-5" x="178.24" y="200.03" width="11.41" height="11.41"/><rect class="cls-4" x="205.95" y="200.03" width="11.41" height="11.41"/><rect class="cls-5" x="217.36" y="200.03" width="11.41" height="11.41"/><rect class="cls-4" x="166.83" y="222.08" width="11.41" height="11.41"/><rect class="cls-5" x="178.24" y="222.08" width="11.41" height="11.41"/><rect class="cls-4" x="205.95" y="222.08" width="11.41" height="11.41"/><rect class="cls-5" x="217.36" y="222.08" width="11.41" height="11.41"/><rect class="cls-8" x="132.45" y="248.83" width="130.7" height="100.35"/><rect class="cls-9" x="132.45" y="340.67" width="130.7" height="8.52"/><rect class="cls-3" x="188.94" y="321.39" width="19.15" height="27.79"/><rect class="cls-10" x="188.94" y="321.39" width="9.58" height="27.79"/><rect class="cls-3" x="132.45" y="248.83" width="130.7" height="9.78"/><rect class="cls-4" x="192.09" y="269.67" width="11.41" height="11.41"/><rect class="cls-4" x="166.83" y="269.67" width="11.41" height="11.41"/><rect class="cls-5" x="141.56" y="269.67" width="11.41" height="11.41"/><rect class="cls-4" x="242.62" y="269.67" width="11.41" height="11.41"/><rect class="cls-4" x="217.36" y="269.67" width="11.41" height="11.41"/><rect class="cls-4" x="192.09" y="296.19" width="11.41" height="11.41"/><rect class="cls-4" x="166.83" y="296.19" width="11.41" height="11.41"/><rect class="cls-5" x="141.56" y="296.19" width="11.41" height="11.41"/><rect class="cls-4" x="242.62" y="296.19" width="11.41" height="11.41"/><rect class="cls-4" x="217.36" y="296.19" width="11.41" height="11.41"/><rect class="cls-4" x="166.83" y="321.58" width="11.41" height="11.41"/><rect class="cls-5" x="141.56" y="321.58" width="11.41" height="11.41"/><rect class="cls-4" x="242.62" y="321.58" width="11.41" height="11.41"/><rect class="cls-4" x="217.36" y="321.58" width="11.41" height="11.41"/></g></g></g></svg>