<svg xmlns="http://www.w3.org/2000/svg" viewBox="0 0 164 315.38"><defs><style>.cls-1{isolation:isolate;}.cls-2{fill:#bc3f1e;}.cls-3{fill:#d24e1e;}.cls-4{fill:#40d1df;}.cls-5{fill:#72dde7;}.cls-6{fill:#f7ba2e;}.cls-7{fill:#e0e0e0;mix-blend-mode:multiply;}.cls-8{fill:#435073;}.cls-9{fill:#38466b;}</style></defs><title>building4</title><g class="cls-1"><g id="Layer_2" data-name="Layer 2"><g id="Layer_1-2" data-name="Layer 1"><rect class="cls-2" x="14.64" y="21.76" width="64.48" height="46.45"/><rect class="cls-2" x="14.64" y="61.47" width="64.48" height="6.74"/><rect class="cls-3" x="11.25" y="17.23" width="71.25" height="5.04"/><rect class="cls-4" x="27.06" y="29.62" width="9.03" height="9.03"/><rect class="cls-5" x="57.66" y="29.62" width="9.03" height="9.03"/><rect class="cls-4" x="27.06" y="47.06" width="9.03" height="9.03"/><rect class="cls-5" x="57.66" y="47.06" width="9.03" height="9.03"/><rect class="cls-6" y="46.68" width="93.75" height="10.62"/><rect class="cls-3" y="57.3" width="93.75" height="258.08"/><rect class="cls-7" y="305.59" width="93.75" height="9.8"/><rect class="cls-4" x="56.25" y="283.41" width="13.12" height="13.13"/><rect class="cls-5" x="69.38" y="283.41" width="13.13" height="13.13"/><rect class="cls-3" x="55.08" y="296.9" width="28.59" height="2.87"/><rect class="cls-4" x="69.38" y="258.3" width="13.13" height="13.13"/><rect class="cls-5" x="40.31" y="258.3" width="13.13" height="13.13"/><rect class="cls-4" x="11.25" y="258.3" width="13.12" height="13.13"/><rect class="cls-4" x="69.38" y="231.27" width="13.13" height="13.13"/><rect class="cls-4" x="40.31" y="231.27" width="13.13" height="13.13"/><rect class="cls-5" x="11.25" y="231.27" width="13.12" height="13.13"/><rect class="cls-5" x="69.38" y="204.23" width="13.13" height="13.13"/><rect class="cls-4" x="40.31" y="204.23" width="13.13" height="13.13"/><rect class="cls-4" x="11.25" y="204.23" width="13.12" height="13.13"/><rect class="cls-4" x="69.38" y="177.19" width="13.13" height="13.13"/><rect class="cls-5" x="40.31" y="177.19" width="13.13" height="13.13"/><rect class="cls-4" x="11.25" y="177.19" width="13.12" height="13.13"/><rect class="cls-4" x="69.38" y="150.16" width="13.13" height="13.13"/><rect class="cls-4" x="40.31" y="150.16" width="13.13" height="13.13"/><rect class="cls-5" x="11.25" y="150.16" width="13.12" height="13.13"/><rect class="cls-5" x="69.38" y="123.12" width="13.13" height="13.13"/><rect class="cls-5" x="40.31" y="123.12" width="13.13" height="13.13"/><rect class="cls-4" x="11.25" y="123.12" width="13.12" height="13.13"/><rect class="cls-4" x="69.38" y="96.09" width="13.13" height="13.13"/><rect class="cls-5" x="40.31" y="96.09" width="13.13" height="13.13"/><rect class="cls-4" x="11.25" y="96.09" width="13.12" height="13.13"/><rect class="cls-5" x="69.38" y="69.05" width="13.13" height="13.12"/><rect class="cls-4" x="40.31" y="69.05" width="13.13" height="13.12"/><rect class="cls-5" x="11.25" y="69.05" width="13.12" height="13.12"/><rect class="cls-8" x="14.65" y="283.41" width="22.03" height="31.97"/><rect class="cls-7" x="14.65" y="283.41" width="11.02" height="31.97"/><rect class="cls-9" x="99.54" width="64.45" height="10.62"/><rect class="cls-8" x="99.54" y="10.62" width="64.45" height="304.76"/><rect class="cls-7" x="99.54" y="305.59" width="64.45" height="9.8"/><rect class="cls-5" x="139.86" y="258.3" width="13.13" height="13.13"/><rect class="cls-4" x="110.79" y="258.3" width="13.13" height="13.13"/><rect class="cls-4" x="139.86" y="231.27" width="13.13" height="13.13"/><rect class="cls-5" x="110.79" y="231.27" width="13.13" height="13.13"/><rect class="cls-4" x="139.86" y="204.23" width="13.13" height="13.13"/><rect class="cls-4" x="110.79" y="204.23" width="13.13" height="13.13"/><rect class="cls-5" x="139.86" y="177.2" width="13.13" height="13.12"/><rect class="cls-4" x="110.79" y="177.2" width="13.13" height="13.12"/><rect class="cls-4" x="139.86" y="150.16" width="13.13" height="13.12"/><rect class="cls-5" x="110.79" y="150.16" width="13.13" height="13.12"/><rect class="cls-5" x="139.86" y="123.13" width="13.13" height="13.13"/><rect class="cls-4" x="110.79" y="123.13" width="13.13" height="13.13"/><rect class="cls-5" x="139.86" y="96.09" width="13.13" height="13.13"/><rect class="cls-4" x="110.79" y="96.09" width="13.13" height="13.13"/><rect class="cls-4" x="139.86" y="69.05" width="13.13" height="13.13"/><rect class="cls-5" x="110.79" y="69.05" width="13.13" height="13.13"/><rect class="cls-4" x="139.86" y="44.33" width="13.13" height="13.13"/><rect class="cls-5" x="110.79" y="44.33" width="13.13" height="13.13"/><rect class="cls-4" x="139.86" y="19.6" width="13.13" height="13.13"/><rect class="cls-5" x="110.79" y="19.6" width="13.13" height="13.13"/><rect class="cls-8" x="120.75" y="283.42" width="22.03" height="31.97"/><rect class="cls-7" x="120.75" y="283.42" width="11.02" height="31.97"/></g></g></g></svg>