<svg xmlns="http://www.w3.org/2000/svg" viewBox="0 0 347.52 401.66"><defs><style>.cls-1{isolation:isolate;}.cls-2{fill:#bc3f1e;}.cls-3{fill:#d24e1e;}.cls-4{fill:#40d1df;}.cls-5{fill:#72dde7;}.cls-6{fill:#435073;}.cls-7{fill:#38466b;}.cls-8{fill:#f7ba2e;}.cls-9{fill:#f7952e;}.cls-10{fill:#e0e0e0;mix-blend-mode:multiply;}</style></defs><title>building2</title><g class="cls-1"><g id="Layer_2" data-name="Layer 2"><g id="Layer_1-2" data-name="Layer 1"><rect class="cls-2" x="269.36" y="4.53" width="64.48" height="46.45"/><rect class="cls-2" x="269.36" y="44.25" width="64.48" height="6.74"/><rect class="cls-3" x="265.97" width="71.25" height="5.04"/><rect class="cls-4" x="281.78" y="12.39" width="9.03" height="9.03"/><rect class="cls-5" x="312.38" y="12.39" width="9.03" height="9.03"/><rect class="cls-4" x="281.78" y="29.84" width="9.03" height="9.03"/><rect class="cls-5" x="312.38" y="29.84" width="9.03" height="9.03"/><rect class="cls-5" x="278.43" y="74.01" width="46.94" height="11.57"/><rect class="cls-4" x="278.43" y="98.92" width="46.94" height="11.56"/><rect class="cls-5" x="278.43" y="123.83" width="46.94" height="11.56"/><rect class="cls-4" x="278.43" y="148.73" width="46.94" height="11.57"/><rect class="cls-5" x="278.43" y="173.64" width="46.94" height="11.56"/><path class="cls-3" d="M264.85,50.89V378.53h73.5V50.89ZM325.38,359H278.43V347.4h46.94Zm0-24.91H278.43V322.49h46.94Zm0-24.91H278.43V297.58h46.94Zm0-24.91H278.43V272.68h46.94Zm0-24.91H278.43V247.77h46.94Zm0-35.88v11H278.43V222.86h46.94Zm0-24.91v11H278.43V198h46.94ZM278.43,74h46.94V85.58H278.43Zm0,24.91h46.94v11.56H278.43Zm0,24.91h46.94v11.56H278.43Zm0,24.91h46.94V160.3H278.43Zm0,24.91h46.94v11.56H278.43Z"/><rect class="cls-2" x="264.85" y="378.53" width="73.5" height="23.13"/><polygon class="cls-5" points="325.38 198.55 325.38 197.96 278.44 197.96 278.44 198.55 278.44 209.52 325.38 209.52 325.38 198.55"/><polygon class="cls-4" points="325.38 223.45 325.38 222.86 278.44 222.86 278.44 223.45 278.44 234.43 325.38 234.43 325.38 223.45"/><rect class="cls-5" x="278.43" y="247.77" width="46.94" height="11.57"/><rect class="cls-4" x="278.43" y="272.68" width="46.94" height="11.57"/><rect class="cls-5" x="278.43" y="297.58" width="46.94" height="11.56"/><rect class="cls-4" x="278.43" y="322.49" width="46.94" height="11.56"/><rect class="cls-5" x="278.43" y="347.4" width="46.94" height="11.56"/><rect class="cls-2" x="255.68" y="56.93" width="91.84" height="7.03"/><rect class="cls-6" x="184.79" y="105.93" width="64.48" height="46.45"/><rect class="cls-7" x="184.79" y="145.64" width="64.48" height="6.74"/><rect class="cls-7" x="181.41" y="101.39" width="71.25" height="5.04"/><rect class="cls-4" x="197.22" y="113.79" width="9.03" height="9.03"/><rect class="cls-5" x="227.82" y="113.79" width="9.03" height="9.03"/><rect class="cls-4" x="197.22" y="131.23" width="9.03" height="9.03"/><rect class="cls-5" x="227.82" y="131.23" width="9.03" height="9.03"/><rect class="cls-6" x="169.22" y="152.61" width="95.62" height="249.05"/><rect class="cls-7" x="169.22" y="376.27" width="95.62" height="25.39"/><rect class="cls-5" x="184.14" y="178" width="66.46" height="12.7"/><rect class="cls-4" x="184.14" y="205.35" width="66.46" height="12.7"/><rect class="cls-5" x="184.14" y="232.7" width="66.46" height="12.7"/><rect class="cls-4" x="184.14" y="260.04" width="66.46" height="12.7"/><rect class="cls-5" x="184.14" y="287.39" width="66.46" height="12.7"/><rect class="cls-4" x="184.14" y="314.74" width="66.46" height="12.7"/><rect class="cls-5" x="184.14" y="342.09" width="66.46" height="12.7"/><rect class="cls-8" x="106.41" y="307.53" width="93.75" height="94.13"/><rect class="cls-9" x="106.41" y="391.86" width="93.75" height="9.8"/><rect class="cls-3" x="101.49" y="300.94" width="103.6" height="7.33"/><rect class="cls-4" x="117.66" y="318.96" width="13.12" height="13.13"/><rect class="cls-5" x="130.78" y="318.96" width="13.13" height="13.13"/><rect class="cls-4" x="162.66" y="318.96" width="13.13" height="13.13"/><rect class="cls-5" x="175.79" y="318.96" width="13.12" height="13.13"/><rect class="cls-4" x="117.66" y="344.32" width="13.12" height="13.13"/><rect class="cls-5" x="130.78" y="344.32" width="13.13" height="13.13"/><rect class="cls-4" x="162.66" y="344.32" width="13.13" height="13.13"/><rect class="cls-5" x="175.79" y="344.32" width="13.12" height="13.13"/><rect class="cls-5" x="174.03" y="369.69" width="13.13" height="13.13"/><rect class="cls-4" x="118.24" y="369.69" width="13.13" height="13.13"/><rect class="cls-3" x="143.09" y="369.69" width="22.03" height="31.97"/><rect class="cls-10" x="143.09" y="369.69" width="11.02" height="31.97"/><rect class="cls-2" x="14.64" y="108.03" width="64.48" height="46.45"/><rect class="cls-2" x="14.64" y="147.75" width="64.48" height="6.74"/><rect class="cls-3" x="11.25" y="103.5" width="71.25" height="5.04"/><rect class="cls-4" x="27.06" y="115.89" width="9.03" height="9.03"/><rect class="cls-5" x="57.66" y="115.89" width="9.03" height="9.03"/><rect class="cls-4" x="27.06" y="133.34" width="9.03" height="9.03"/><rect class="cls-5" x="57.66" y="133.34" width="9.03" height="9.03"/><rect class="cls-8" y="132.96" width="93.75" height="10.62"/><rect class="cls-3" y="143.58" width="93.75" height="258.08"/><rect class="cls-10" y="391.86" width="93.75" height="9.8"/><rect class="cls-4" x="56.25" y="369.69" width="13.12" height="13.13"/><rect class="cls-5" x="69.38" y="369.69" width="13.13" height="13.13"/><rect class="cls-3" x="55.08" y="383.17" width="28.59" height="2.87"/><rect class="cls-4" x="69.38" y="344.58" width="13.13" height="13.13"/><rect class="cls-5" x="40.31" y="344.58" width="13.13" height="13.13"/><rect class="cls-4" x="11.25" y="344.58" width="13.12" height="13.13"/><rect class="cls-4" x="69.38" y="317.54" width="13.13" height="13.13"/><rect class="cls-4" x="40.31" y="317.54" width="13.13" height="13.13"/><rect class="cls-5" x="11.25" y="317.54" width="13.12" height="13.13"/><rect class="cls-5" x="69.38" y="290.51" width="13.13" height="13.13"/><rect class="cls-4" x="40.31" y="290.51" width="13.13" height="13.13"/><rect class="cls-4" x="11.25" y="290.51" width="13.12" height="13.13"/><rect class="cls-4" x="69.38" y="263.47" width="13.13" height="13.13"/><rect class="cls-5" x="40.31" y="263.47" width="13.13" height="13.13"/><rect class="cls-4" x="11.25" y="263.47" width="13.12" height="13.13"/><rect class="cls-4" x="69.38" y="236.43" width="13.13" height="13.13"/><rect class="cls-4" x="40.31" y="236.43" width="13.13" height="13.13"/><rect class="cls-5" x="11.25" y="236.43" width="13.12" height="13.13"/><rect class="cls-5" x="69.38" y="209.4" width="13.13" height="13.13"/><rect class="cls-5" x="40.31" y="209.4" width="13.13" height="13.13"/><rect class="cls-4" x="11.25" y="209.4" width="13.12" height="13.13"/><rect class="cls-4" x="69.38" y="182.36" width="13.13" height="13.13"/><rect class="cls-5" x="40.31" y="182.36" width="13.13" height="13.13"/><rect class="cls-4" x="11.25" y="182.36" width="13.12" height="13.13"/><rect class="cls-5" x="69.38" y="155.33" width="13.13" height="13.12"/><rect class="cls-4" x="40.31" y="155.33" width="13.13" height="13.12"/><rect class="cls-5" x="11.25" y="155.33" width="13.12" height="13.12"/><rect class="cls-6" x="14.65" y="369.69" width="22.03" height="31.97"/><rect class="cls-10" x="14.65" y="369.69" width="11.02" height="31.97"/></g></g></g></svg>