<svg xmlns="http://www.w3.org/2000/svg" viewBox="0 0 321.78 315.38"><defs><style>.cls-1{isolation:isolate;}.cls-2{fill:#38466b;}.cls-3{fill:#435073;}.cls-4{fill:#e0e0e0;mix-blend-mode:multiply;}.cls-5{fill:#72dde7;}.cls-6{fill:#40d1df;}.cls-7{fill:#f7ba2e;}.cls-8{fill:#d24e1e;}.cls-9{fill:#f7952e;}</style></defs><title>building1</title><g class="cls-1"><g id="Layer_2" data-name="Layer 2"><g id="Layer_1-2" data-name="Layer 1"><rect class="cls-2" x="172.31" width="64.45" height="10.62"/><rect class="cls-3" x="172.31" y="10.62" width="64.45" height="304.76"/><rect class="cls-4" x="172.31" y="305.59" width="64.45" height="9.8"/><rect class="cls-5" x="212.62" y="258.31" width="13.13" height="13.13"/><rect class="cls-6" x="183.56" y="258.31" width="13.13" height="13.13"/><rect class="cls-6" x="212.62" y="231.27" width="13.13" height="13.13"/><rect class="cls-5" x="183.56" y="231.27" width="13.13" height="13.13"/><rect class="cls-6" x="212.62" y="204.23" width="13.13" height="13.13"/><rect class="cls-6" x="183.56" y="204.23" width="13.13" height="13.13"/><rect class="cls-5" x="212.62" y="177.2" width="13.13" height="13.12"/><rect class="cls-6" x="183.56" y="177.2" width="13.13" height="13.12"/><rect class="cls-6" x="212.62" y="150.16" width="13.13" height="13.12"/><rect class="cls-5" x="183.56" y="150.16" width="13.13" height="13.12"/><rect class="cls-5" x="212.62" y="123.13" width="13.13" height="13.13"/><rect class="cls-6" x="183.56" y="123.13" width="13.13" height="13.13"/><rect class="cls-5" x="212.62" y="96.09" width="13.13" height="13.13"/><rect class="cls-6" x="183.56" y="96.09" width="13.13" height="13.13"/><rect class="cls-6" x="212.62" y="69.05" width="13.13" height="13.13"/><rect class="cls-5" x="183.56" y="69.05" width="13.13" height="13.13"/><rect class="cls-6" x="212.62" y="44.33" width="13.13" height="13.13"/><rect class="cls-5" x="183.56" y="44.33" width="13.13" height="13.13"/><rect class="cls-6" x="212.62" y="19.6" width="13.13" height="13.13"/><rect class="cls-5" x="183.56" y="19.6" width="13.13" height="13.13"/><rect class="cls-3" x="193.52" y="283.42" width="22.03" height="31.97"/><rect class="cls-4" x="193.52" y="283.42" width="11.02" height="31.97"/><rect class="cls-7" width="64.46" height="10.62"/><rect class="cls-8" y="10.62" width="64.46" height="304.76"/><rect class="cls-4" y="305.59" width="64.46" height="9.8"/><rect class="cls-5" x="40.31" y="258.31" width="13.13" height="13.13"/><rect class="cls-6" x="11.25" y="258.31" width="13.13" height="13.13"/><rect class="cls-6" x="40.31" y="231.27" width="13.13" height="13.13"/><rect class="cls-5" x="11.25" y="231.27" width="13.13" height="13.13"/><rect class="cls-6" x="40.31" y="204.23" width="13.13" height="13.13"/><rect class="cls-6" x="11.25" y="204.23" width="13.13" height="13.13"/><rect class="cls-5" x="40.31" y="177.2" width="13.13" height="13.12"/><rect class="cls-6" x="11.25" y="177.2" width="13.13" height="13.12"/><rect class="cls-6" x="40.31" y="150.16" width="13.13" height="13.13"/><rect class="cls-5" x="11.25" y="150.16" width="13.13" height="13.13"/><rect class="cls-5" x="40.31" y="123.12" width="13.13" height="13.13"/><rect class="cls-6" x="11.25" y="123.12" width="13.13" height="13.13"/><rect class="cls-5" x="40.31" y="96.09" width="13.13" height="13.13"/><rect class="cls-6" x="11.25" y="96.09" width="13.13" height="13.13"/><rect class="cls-6" x="40.31" y="69.05" width="13.13" height="13.12"/><rect class="cls-5" x="11.25" y="69.05" width="13.13" height="13.12"/><rect class="cls-6" x="40.31" y="44.33" width="13.13" height="13.13"/><rect class="cls-5" x="11.25" y="44.33" width="13.13" height="13.13"/><rect class="cls-6" x="40.31" y="19.6" width="13.13" height="13.12"/><rect class="cls-5" x="11.25" y="19.6" width="13.13" height="13.12"/><rect class="cls-3" x="21.21" y="283.41" width="22.03" height="31.97"/><rect class="cls-4" x="21.21" y="283.41" width="11.02" height="31.97"/><rect class="cls-7" x="199.73" y="132.39" width="93.75" height="67.54"/><rect class="cls-9" x="199.73" y="190.13" width="93.75" height="9.79"/><rect class="cls-8" x="194.81" y="125.8" width="103.6" height="7.33"/><rect class="cls-6" x="210.98" y="143.81" width="13.13" height="13.13"/><rect class="cls-5" x="224.1" y="143.81" width="13.13" height="13.13"/><rect class="cls-6" x="255.98" y="143.81" width="13.13" height="13.13"/><rect class="cls-5" x="269.11" y="143.81" width="13.12" height="13.13"/><rect class="cls-6" x="210.98" y="169.18" width="13.13" height="13.12"/><rect class="cls-5" x="224.1" y="169.18" width="13.13" height="13.12"/><rect class="cls-6" x="255.98" y="169.18" width="13.13" height="13.12"/><rect class="cls-5" x="269.11" y="169.18" width="13.12" height="13.12"/><rect class="cls-7" x="171.43" y="199.95" width="150.35" height="115.43"/><rect class="cls-9" x="171.43" y="305.59" width="150.35" height="9.8"/><rect class="cls-8" x="236.41" y="283.41" width="22.03" height="31.97"/><rect class="cls-4" x="236.41" y="283.41" width="11.01" height="31.97"/><rect class="cls-8" x="171.43" y="199.95" width="150.35" height="11.25"/><rect class="cls-6" x="240.04" y="223.93" width="13.13" height="13.13"/><rect class="cls-6" x="210.98" y="223.93" width="13.13" height="13.13"/><rect class="cls-5" x="181.92" y="223.93" width="13.12" height="13.13"/><rect class="cls-6" x="298.17" y="223.93" width="13.13" height="13.13"/><rect class="cls-6" x="269.11" y="223.93" width="13.12" height="13.13"/><rect class="cls-6" x="240.04" y="254.43" width="13.13" height="13.12"/><rect class="cls-6" x="210.98" y="254.43" width="13.13" height="13.12"/><rect class="cls-5" x="181.92" y="254.43" width="13.12" height="13.12"/><rect class="cls-6" x="298.17" y="254.43" width="13.13" height="13.12"/><rect class="cls-6" x="269.11" y="254.43" width="13.12" height="13.12"/><rect class="cls-6" x="210.98" y="283.64" width="13.13" height="13.13"/><rect class="cls-5" x="181.92" y="283.64" width="13.12" height="13.13"/><rect class="cls-6" x="298.17" y="283.64" width="13.13" height="13.13"/><rect class="cls-6" x="269.11" y="283.64" width="13.12" height="13.13"/><rect class="cls-3" x="63.09" y="108.55" width="93.4" height="206.83"/><rect class="cls-2" x="63.09" y="294.3" width="93.4" height="21.09"/><rect class="cls-6" x="102.97" y="120.97" width="32.34" height="160.75"/><rect class="cls-5" x="75.57" y="120.97" width="14.21" height="158.05"/><rect class="cls-2" x="102" y="134.91" width="62.65" height="10.54"/><rect class="cls-2" x="102" y="157.63" width="62.65" height="10.54"/><rect class="cls-2" x="102" y="180.34" width="62.65" height="10.54"/><rect class="cls-2" x="102" y="203.05" width="62.65" height="10.54"/><rect class="cls-2" x="102" y="225.76" width="62.65" height="10.55"/><rect class="cls-2" x="102" y="248.47" width="62.65" height="10.54"/><rect class="cls-2" x="102" y="271.18" width="62.65" height="10.54"/><rect class="cls-3" x="66.09" y="134.91" width="34.94" height="10.54"/><rect class="cls-3" x="66.09" y="157.63" width="34.94" height="10.54"/><rect class="cls-3" x="66.09" y="180.34" width="34.94" height="10.54"/><rect class="cls-3" x="66.09" y="203.05" width="34.94" height="10.54"/><rect class="cls-3" x="66.09" y="225.76" width="34.94" height="10.55"/><rect class="cls-3" x="66.09" y="248.47" width="34.94" height="10.54"/><rect class="cls-3" x="66.09" y="271.18" width="34.94" height="10.54"/></g></g></g></svg>