<svg xmlns="http://www.w3.org/2000/svg" viewBox="0 0 876.86 178.42"><defs><style>.cls-1{fill:#fff;}</style></defs><title>cloud</title><g id="Layer_2" data-name="Layer 2"><g id="Layer_1-2" data-name="Layer 1"><path class="cls-1" d="M0,87.12l72.11.12s.7-5.17-8.25-6.26c0,0,3-5.27-4.33-9.31s-11.57,1-11.57,1a9.91,9.91,0,0,0-7.41-9.84c-7.88-2.38-13.1,3.67-14.22,7.27,0,0-12.07-2.58-12.07,6.87C14.25,77,3.38,77.39,0,87.12Z"/><path class="cls-1" d="M804.34,94.53l72.5.12s.7-5.2-8.3-6.3c0,0,3-5.3-4.36-9.36s-11.64,1-11.64,1a10,10,0,0,0-7.45-9.89c-7.93-2.39-13.17,3.69-14.3,7.31,0,0-12.14-2.59-12.14,6.9C818.67,84.33,807.74,84.75,804.34,94.53Z"/><path class="cls-1" d="M413.78,178.28l85.73.15s.83-6.15-9.81-7.45c0,0,3.52-6.27-5.15-11.06s-13.76,1.19-13.76,1.19a11.78,11.78,0,0,0-8.8-11.7c-9.37-2.82-15.57,4.37-16.91,8.64,0,0-14.35-3.07-14.35,8.16C430.72,166.21,417.8,166.71,413.78,178.28Z"/><path class="cls-1" d="M369.24,30.08l87.4.15s.85-6.27-10-7.59c0,0,3.59-6.39-5.25-11.28s-14,1.21-14,1.21a12,12,0,0,0-9-11.92c-9.55-2.88-15.88,4.45-17.24,8.81,0,0-14.63-3.13-14.63,8.32C386.51,17.78,373.34,18.29,369.24,30.08Z"/></g></g></svg>