<svg xmlns="http://www.w3.org/2000/svg" viewBox="0 0 75 75"><defs><style>.cls-1{fill:#fff;}</style></defs><title>groundwater</title><g id="Layer_2" data-name="Layer 2"><g id="Layer_1-2" data-name="Layer 1"><path class="cls-1" d="M75,67.71a10.93,10.93,0,0,1-4.17,1c-3.12,0-5.21-2.08-8.33-2.08s-5.21,2.08-8.33,2.08S49,66.67,45.84,66.67s-5.21,2.08-8.33,2.08-5.21-2.08-8.33-2.08S24,68.75,20.84,68.75s-5.21-2.08-8.33-2.08S7.3,68.75,4.18,68.75a11,11,0,0,1-4.17-1V74a10.87,10.87,0,0,0,4.16,1c3.13,0,5.21-2.08,8.33-2.08S17.71,75,20.83,75s5.21-2.08,8.33-2.08S34.38,75,37.5,75s5.21-2.08,8.33-2.08S51,75,54.16,75s5.21-2.08,8.33-2.08S67.7,75,70.83,75A10.9,10.9,0,0,0,75,74V67.71Z"/><path class="cls-1" d="M67.71,9.38,61.46,19.79l-7.29,3.13L52.08,40.63,51,51,37.5,55.21,24,51,20.83,31.25l-5.21-4.17L10.42,15.62,0,13.54V61.46a11,11,0,0,0,4.17,1c3.13,0,5.21-2.08,8.33-2.08s5.21,2.08,8.33,2.08,5.21-2.08,8.33-2.08,5.21,2.08,8.33,2.08,5.21-2.08,8.33-2.08S51,62.5,54.16,62.5s5.21-2.08,8.33-2.08,5.21,2.08,8.33,2.08a10.89,10.89,0,0,0,4.17-1V9.38Z"/><path class="cls-1" d="M42.19,29.39,32.81,26V21.06l9.38,3.38Zm0,9.39L32.81,35.4v-5l9.38,3.38ZM37.5,47.66,32.81,43V39.83l9.25,3.33Zm-4.69-36,9.38,3.38V20l-9.38-3.38Zm0-8.56h9.38v7.52L32.81,7.26ZM46.4,26l3.38-3.2-4.47-1.61v-5l1.09.39,3.38-3.2-4.47-1.61V0H29.69V6.13L25.75,4.71l.53,4.63,3.4,1.23V15.5l-3.93-1.42.53,4.63,3.4,1.23v4.94l-3.93-1.42.54,4.63,3.4,1.23v5l-3.93-1.42.53,4.63,3.4,1.23v5.63l7.8,7.75,7.81-7.75,1.09.39,3.38-3.2-4.47-1.61v-5l1.09.39,3.38-3.2-4.47-1.61V25.57Z"/></g></g></svg>