<svg xmlns="http://www.w3.org/2000/svg" viewBox="0 0 54.65 89.44"><defs><style>.cls-1{fill:#252445;}</style></defs><title>meterblue</title><g id="Layer_2" data-name="Layer 2"><g id="Layer_1-2" data-name="Layer 1"><path class="cls-1" d="M28.57,27.33V24.85H32.3l-5-8.7-5,8.69h3.73v2.48H6.21a21.12,21.12,0,1,1,42.23,0H28.57ZM37.27,48.7v6H33.54v-6a5,5,0,0,1,0-9.2v-6h3.73v6a5,5,0,0,1,0,9.2ZM21.12,47.2H13.66V33.54h7.45ZM27.33,0A27.32,27.32,0,0,0,8.71,47.32L9.94,62.11,21.12,75.77V89.44H33.54V75.77L44.72,62.11l1.23-14.79A27.32,27.32,0,0,0,27.33,0Z"/><rect class="cls-1" x="16.46" y="34.78" width="1.86" height="11.18"/><rect class="cls-1" x="26.09" y="9.94" width="2.48" height="3.73"/><rect class="cls-1" x="18.32" y="12.02" width="2.48" height="3.73" transform="translate(-4.32 11.64) rotate(-30)"/><rect class="cls-1" x="12.63" y="17.7" width="2.49" height="3.73" transform="translate(-10 21.81) rotate(-60.01)"/><rect class="cls-1" x="33.23" y="12.63" width="3.73" height="2.49" transform="translate(5.51 37.31) rotate(-59.97)"/><rect class="cls-1" x="38.91" y="18.32" width="3.73" height="2.49" transform="matrix(0.87, -0.5, 0.5, 0.87, -4.32, 23.04)"/></g></g></svg>