<svg xmlns="http://www.w3.org/2000/svg" viewBox="0 0 123.96 71.57"><defs><style>.cls-1{fill:#252445;}</style></defs><title>modelblue</title><g id="Layer_2" data-name="Layer 2"><g id="Layer_1-2" data-name="Layer 1"><path class="cls-1" d="M62,7.73,59.09,6.07,62,4.41l2.89,1.67Zm5.32,3-4.36-2.5,2.89-1.66,4.34,2.5Zm5.29,3-1.11-.64-3.23-1.85,2.86-1.64,4.33,2.5C74.51,12.73,73.56,13.28,72.59,13.81Zm37,21.4-4.31-2.5,2.87-1.64,4.33,2.5Zm1,.56,2.89-1.66,2.91,1.68-2.89,1.67Zm-5.32,3,4.37-2.5,2.92,1.7-4.34,2.5Zm-5.28,3,.71-.4,3.62-2.07,2.94,1.71-4.33,2.5C101.86,43,100.88,42.4,99.92,41.83Zm-5.27,3L99,42.36l2.93,1.74-4.34,2.5Q96.11,45.77,94.65,44.84Zm-5.27,3,4.33-2.48c1,.62,1.94,1.21,2.91,1.78l-4.33,2.5C91.28,49.06,90.32,48.47,89.38,47.86Zm-5.29,3,1.86-1.08,2.51-1.44c.93.62,1.88,1.22,2.88,1.82L87,52.71C86,52.12,85,51.51,84.09,50.9ZM78.78,54l4.39-2.56c.93.62,1.88,1.22,2.88,1.82l-4.34,2.51C80.73,55.2,79.76,54.61,78.78,54Zm-5.31,3.09,4.37-2.55c1,.62,1.94,1.21,2.91,1.77l-4.34,2.5C75.42,58.25,74.44,57.67,73.48,57.09Zm-5.29,3.08,3.29-1.92,1.06-.62,2.93,1.74-4.34,2.51Zm-5.26,3.07,4.31-2.51,2.93,1.71-4.33,2.5Zm-.95.55,2.92,1.7L62,67.17l-2.92-1.68Zm-5.26-3.06L61,63.24l-2.91,1.7-4.33-2.5Zm-5.3-3.09,1.13.66,3.23,1.88-2.94,1.71-4.34-2.5Zm-5.31-3.09,4.37,2.55-2.94,1.74-4.34-2.5C44.17,55.75,45.14,55.16,46.11,54.54Zm-5.32-3.09L45.18,54c-1,.61-1.95,1.21-2.92,1.78l-4.34-2.51C38.9,52.66,39.85,52.06,40.79,51.45ZM35.5,48.39,38,49.83l1.86,1.08c-.93.61-1.9,1.21-2.91,1.81l-4.34-2.5C33.61,49.61,34.57,49,35.5,48.39Zm-5.26-3,4.33,2.48c-.93.61-1.9,1.21-2.9,1.8l-4.33-2.5C28.3,46.59,29.27,46,30.24,45.38Zm-5.26-3,4.32,2.48q-1.46.91-2.91,1.78l-4.34-2.5Zm-5.27-3,3.68,2.1.65.37c-1,.58-1.94,1.15-2.93,1.74l-4.33-2.5Zm-5.31-3,4.37,2.5-2.94,1.71L11.48,38Zm-1-.54-2.91,1.7-2.9-1.68,2.91-1.68Zm5.25-3.06-4.31,2.5L11.5,33.55l4.33-2.5ZM21.11,28,24,29.63l-.54.31-3.78,2.2-2.87-1.64Zm10.57-6.1c.93.53,1.87,1.07,2.85,1.58L30.23,26q-1.47-.78-2.88-1.58ZM37,18.85c.93.53,1.87,1.07,2.84,1.58l-1.93,1.11-2.37,1.38c-1-.5-1.94-1-2.88-1.56Zm10.58-6.11c.94.54,1.89,1.09,2.85,1.62l-4.29,2.46c-1-.52-1.95-1-2.88-1.58Zm9.11-2L53.79,9.14l4.34-2.5L61,8.29Zm5.32,3c-1.46-.8-2.92-1.61-4.36-2.43L62,8.83l4.36,2.49C64.89,12.14,63.43,13,62,13.75Zm5.31,2.8-1-.5c-1.11-.58-2.23-1.17-3.33-1.76,1.45-.8,2.89-1.6,4.33-2.42L71,14l.6.34C70.2,15.12,68.75,15.87,67.28,16.55Zm5.27,2.64L71,18.43,68.37,17.1c1.43-.7,2.83-1.44,4.22-2.2l4.27,2.44A36.65,36.65,0,0,1,72.55,19.2Zm5.29,2.73c-1.37-.73-2.75-1.44-4.12-2.14a42.76,42.76,0,0,0,4.11-1.87l4.27,2.44A24.77,24.77,0,0,1,77.84,21.93ZM83.13,25c-.64-.39-1.26-.8-1.9-1.17s-1.45-.83-2.18-1.23a28.23,28.23,0,0,0,4.08-1.64l2.47,1.42,1.81,1.06A25.79,25.79,0,0,1,83.13,25Zm5.32,3.36c-1.38-.91-2.79-1.79-4.21-2.68A27.28,27.28,0,0,0,88.41,24l4.31,2.51A37.87,37.87,0,0,1,88.45,28.35Zm5.31,3.46-3.29-2.15-1-.66a42.72,42.72,0,0,0,4.25-1.93l4.37,2.54C96.65,30.38,95.22,31.12,93.76,31.8ZM100,35.69c1.46-.8,2.91-1.62,4.36-2.44l4.31,2.51-4.37,2.5C102.82,37.41,101.38,36.55,100,35.69ZM94.66,38.5l.45-.23c1.3-.67,2.58-1.36,3.88-2.05,1.44.87,2.88,1.73,4.32,2.58l-3.14,1.8L99,41.26C97.51,40.36,96.07,39.44,94.66,38.5Zm-5.31,2.68,1-.52L93.68,39c1.42,1,2.88,1.89,4.37,2.8l-4.31,2.46C92.25,43.31,90.78,42.28,89.34,41.18ZM84,43.9c1.46-.78,2.92-1.52,4.37-2.25,1.44,1.13,2.93,2.17,4.42,3.15L88.5,47.27A50.26,50.26,0,0,1,84,43.9Zm-5.33,3L80.22,46c1-.56,1.92-1.09,2.89-1.62a50,50,0,0,0,4.45,3.42L85.47,49l-2.26,1.32A47.44,47.44,0,0,1,78.69,46.92ZM73.4,50.27c1.46-1,2.94-1.91,4.43-2.84a50,50,0,0,0,4.45,3.42l-4.41,2.57C76.36,52.45,74.86,51.4,73.4,50.27Zm-5.26,3.44L71,51.84l1.54-1C74,52,75.47,53,77,54l-4.41,2.56Q70.29,55.15,68.14,53.71ZM62.9,57c1.07-.65,2.13-1.31,3.19-2l1.19-.77q2.12,1.43,4.35,2.79l-.62.36-3.75,2.19Q65.07,58.35,62.9,57Zm-.92.56c1.44.88,2.89,1.74,4.31,2.58L62,62.68l-4.31-2.51C59.1,59.33,60.54,58.47,62,57.59Zm-5.29-3.31,1.19.77c1.05.67,2.12,1.33,3.19,2q-2.18,1.31-4.34,2.58L53,57.47l-.69-.4C53.82,56.16,55.28,55.24,56.69,54.28Zm-5.29-3.45,1.53,1,2.88,1.88c-1.43,1-2.9,1.89-4.41,2.82L47,54C48.49,53,50,51.95,51.41,50.83Zm-5.28-3.39c1.5.93,3,1.88,4.43,2.84-1.47,1.13-3,2.18-4.48,3.15l-4.41-2.57A50.09,50.09,0,0,0,46.13,47.44Zm-5.28-3.05c1,.53,1.94,1.07,2.89,1.62l1.53.92a49.77,49.77,0,0,1-4.51,3.4L38.49,49l-2.1-1.2A52.41,52.41,0,0,0,40.85,44.38Zm-5.28-2.74c1.46.73,2.92,1.48,4.37,2.25a48.07,48.07,0,0,1-4.48,3.37l-4.32-2.47C32.64,43.82,34.12,42.78,35.57,41.65ZM30.28,39l3.3,1.66,1,.52c-1.44,1.11-2.91,2.13-4.4,3.09L25.9,41.8C27.4,40.89,28.86,40,30.28,39ZM25,36.22c1.29.7,2.58,1.39,3.88,2.05l.44.23c-1.41.94-2.85,1.85-4.33,2.76l-1.11-.64-3.19-1.83Q22.82,37.53,25,36.22Zm-1-.54c-1.43.87-2.87,1.72-4.31,2.56l-4.36-2.5,4.31-2.51C21.09,34.07,22.55,34.89,24,35.69Zm5.25-3.27-.71.46Q26.76,34,25,35.12c-1.46-.79-2.91-1.61-4.35-2.42l3.31-1.93,1-.6C26.35,30.95,27.79,31.71,29.26,32.41ZM34.51,29l-1,.67L30.2,31.8c-1.46-.69-2.89-1.42-4.31-2.19l4.37-2.54A41.28,41.28,0,0,0,34.51,29Zm5.21-3.34c-1.42.89-2.82,1.78-4.21,2.68a37.57,37.57,0,0,1-4.28-1.84L35.54,24A28.22,28.22,0,0,0,39.71,25.66Zm5.19-3.08c-.73.4-1.46.81-2.18,1.23s-1.26.78-1.89,1.17a24.46,24.46,0,0,1-4.29-1.57l1.81-1.06,2.47-1.42A27.88,27.88,0,0,0,44.91,22.58Zm5.32-2.8c-1.37.69-2.75,1.41-4.12,2.14a24,24,0,0,1-4.27-1.57l4.28-2.44A42.76,42.76,0,0,0,50.23,19.79Zm5.36-2.68L53,18.44l-1.54.77a37.46,37.46,0,0,1-4.31-1.86l4.27-2.44Q53.44,16,55.59,17.1Zm2.07-1-1,.5q-2.21-1-4.33-2.21L53,14l3.7-2.12q2.15,1.22,4.33,2.42C59.88,14.89,58.77,15.49,57.66,16.06Zm4.93,2.46-.62.21-.61-.21c-1.22-.44-2.41-.93-3.59-1.46l.32-.16c1.3-.67,2.6-1.36,3.89-2.06,1.29.7,2.58,1.39,3.88,2.06l.32.16C65,17.59,63.81,18.08,62.59,18.52Zm4.59,1.91-1.58-.5c-.71-.22-1.43-.48-2.15-.71,1.3-.49,2.57-1,3.82-1.6l3.32,1.67.68.34A19.78,19.78,0,0,1,67.18,20.43Zm5.21,1.91c-1.05-.45-2.12-.85-3.19-1.22a24.52,24.52,0,0,0,3.27-.88c1.3.65,2.6,1.32,3.9,2A14.18,14.18,0,0,1,72.4,22.34ZM78,25.43l-.84-.59a27.56,27.56,0,0,0-2.52-1.46,17.56,17.56,0,0,0,3.11-.43c1,.55,2,1.11,3,1.7l1,.63A14.47,14.47,0,0,1,78,25.43Zm5.33,4.13c-1.27-1.06-2.56-2.11-3.9-3.11A16.4,16.4,0,0,0,83,26c1.45.89,2.88,1.81,4.3,2.74A21.15,21.15,0,0,1,83.29,29.56ZM89,33.78l-.52.17c-1.09-.89-2.15-1.79-3.2-2.68l-1-.89a23.42,23.42,0,0,0,4.05-1l1.62,1.07,2.8,1.82C91.52,32.82,90.29,33.34,89,33.78Zm1.31,1.64c-.32-.24-.63-.51-.95-.76,1.46-.52,2.88-1.13,4.28-1.78l1.21.79c1,.67,2.1,1.32,3.15,2q-1.68.91-3.37,1.79l-.93.47C92.59,37.1,91.46,36.29,90.34,35.43Zm-5.13,2.21c-.4-.39-.77-.81-1.15-1.21l1-.32c1.07-.34,2.15-.69,3.24-1.06.48.38.95.78,1.43,1.15,1,.76,2,1.48,3,2.2L90,39.81l-1.46.73C87.38,39.63,86.28,38.67,85.22,37.63Zm-5.3,2.25c-.44-.5-.85-1-1.27-1.52,1.46-.61,2.94-1.13,4.41-1.62.5.52,1,1.06,1.49,1.56,1,1,2,1.84,3,2.68q-2.17,1.08-4.33,2.24A38.81,38.81,0,0,1,79.92,39.89Zm-5.29,3.05c-.47-.54-.93-1.09-1.38-1.66l.56-.4a27.54,27.54,0,0,1,3.93-2.13c.48.6,1,1.19,1.46,1.76a36.71,36.71,0,0,0,3.15,3.2c-.88.48-1.75,1-2.6,1.46-.6.35-1.19.74-1.79,1.1A37.55,37.55,0,0,1,74.62,42.94Zm-5.27,3.85c-.48-.46-.92-1-1.39-1.45,1.45-1.21,2.94-2.4,4.49-3.51.47.59.95,1.17,1.44,1.73A39.16,39.16,0,0,0,77.1,46.8c-1.52.94-3,1.89-4.49,2.86C71.49,48.76,70.4,47.82,69.36,46.79Zm-5.45,3.9c-.4-.31-.78-.63-1.17-.94,1-.83,2-1.67,3-2.5L67.24,46c.48.5.95,1,1.45,1.52,1,1,2,1.87,3.08,2.74L70.49,51l-3.22,2.1C66.13,52.35,65,51.55,63.91,50.69Zm-3.28.75c.46-.35.9-.72,1.35-1.09.45.36.89.73,1.35,1.09,1,.78,2,1.52,3.09,2.25l-.84.55c-1.19.76-2.39,1.5-3.59,2.24q-1.8-1.09-3.59-2.24l-.84-.55C58.59,53,59.62,52.23,60.63,51.45Zm-5.35-4c.5-.49,1-1,1.44-1.51l1.54,1.31c1,.82,2,1.66,3,2.49-.39.31-.78.64-1.17.94Q58.4,52,56.69,53.14L53.47,51l-1.27-.83C53.24,49.35,54.27,48.45,55.27,47.47ZM50,43.56c.49-.56,1-1.15,1.44-1.73,1.55,1.11,3,2.29,4.5,3.51-.46.48-.91,1-1.38,1.44-1,1-2.14,2-3.25,2.88-1.48-1-3-1.91-4.49-2.86A38.13,38.13,0,0,0,50,43.56Zm-5.29-3.05c.5-.57,1-1.16,1.46-1.76a27.58,27.58,0,0,1,3.93,2.14l.56.39c-.45.56-.91,1.11-1.38,1.65A38.72,38.72,0,0,1,46,46.28c-.6-.36-1.19-.75-1.79-1.1-.85-.5-1.73-1-2.6-1.46A35.92,35.92,0,0,0,44.76,40.51Zm-5.35-2.2c.52-.5,1-1,1.49-1.56,1.48.49,3,1,4.41,1.62-.42.52-.83,1-1.27,1.52a37.87,37.87,0,0,1-3.33,3.35c-1.44-.77-2.89-1.52-4.33-2.24C37.42,40.15,38.43,39.26,39.41,38.31ZM34.2,36.18c.48-.37,1-.77,1.43-1.15,1.09.37,2.18.72,3.24,1.06l1,.33c-.38.4-.76.82-1.15,1.21-1.06,1-2.16,2-3.29,2.9L34,39.81l-2.83-1.42C32.2,37.67,33.2,37,34.2,36.18Zm.36-1.52c-.32.25-.63.52-.95.76-1.11.85-2.24,1.68-3.39,2.46l-.93-.47c-1.13-.58-2.25-1.18-3.37-1.78,1.05-.65,2.11-1.3,3.15-2l1.2-.79C31.68,33.54,33.1,34.14,34.56,34.67Zm5.13-4.29-1,.9c-1,.89-2.12,1.79-3.2,2.68-.17-.06-.34-.11-.51-.17-1.26-.45-2.5-1-3.71-1.51L34,30.46l1.63-1.07A21.92,21.92,0,0,0,39.69,30.38Zm4.88-3.94c-1.34,1-2.64,2.05-3.9,3.11a20.74,20.74,0,0,1-4-.83C38.07,27.8,39.5,26.88,41,26A16,16,0,0,0,44.57,26.44Zm4.78-3.07a27.11,27.11,0,0,0-2.51,1.46l-.84.59a14.24,14.24,0,0,1-3.84-.17l1-.63q1.5-.88,3-1.7A15.45,15.45,0,0,0,49.35,23.37Zm5.39-2.26c-1.07.37-2.14.78-3.19,1.22a14,14,0,0,1-4-.11c1.3-.68,2.6-1.35,3.9-2A22.9,22.9,0,0,0,54.74,21.11Zm3.6-1.19-1.58.5a20.25,20.25,0,0,1-4.09-.81l.69-.34,3.31-1.67c1.24.58,2.52,1.11,3.82,1.6C59.78,19.45,59.06,19.7,58.35,19.93ZM80.08,32,79,30.72c1.2,0,2.56-.05,4-.17L84.7,32c.9.77,1.82,1.54,2.74,2.31-.88.29-1.77.6-2.64.88l-1.47.47C82.22,34.45,81.13,33.24,80.08,32Zm-5.32,1.15-1.4-1.93a19.76,19.76,0,0,1,4.34-.49l1.66,1.9c1,1.11,2,2.23,3,3.34-1.44.48-2.87,1-4.29,1.6C76.9,36.13,75.82,34.64,74.76,33.17Zm-5.29,3.06L67.93,34.1a14.62,14.62,0,0,1,4.46-2.57c.54.74,1.07,1.47,1.6,2.21C75,35.14,76,36.58,77.14,38a28.42,28.42,0,0,0-3.86,2.11c-.21.14-.41.29-.62.44C71.56,39.11,70.5,37.65,69.48,36.23Zm-5.26,4.95c-.52-.61-1.06-1.22-1.6-1.83A53.5,53.5,0,0,1,67.1,34.8l.1-.09c.51.69,1,1.39,1.5,2.07,1,1.42,2.07,2.87,3.18,4.29-1.58,1.13-3.1,2.34-4.57,3.57C66.25,43.5,65.22,42.33,64.22,41.18Zm-3.76.63L62,40.06l1.52,1.74c1,1.15,2,2.31,3.09,3.46l-1.49,1.27c-1,.87-2.05,1.74-3.11,2.61-1.05-.87-2.09-1.74-3.11-2.6l-1.5-1.27C58.43,44.12,59.46,43,60.46,41.81Zm-5.21-5,1.51-2.08.1.09a53.5,53.5,0,0,1,4.48,4.55c-.54.61-1.07,1.22-1.6,1.83-1,1.15-2,2.32-3.09,3.46-1.47-1.23-3-2.44-4.57-3.57C53.18,39.66,54.23,38.22,55.25,36.79ZM50,33.73c.52-.74,1.07-1.47,1.6-2.21A14.74,14.74,0,0,1,56,34.09l-1.55,2.14c-1,1.42-2.08,2.88-3.18,4.29l-.62-.43A28.45,28.45,0,0,0,46.83,38C47.91,36.58,49,35.14,50,33.73ZM44.6,32.65l1.66-1.89a19.76,19.76,0,0,1,4.34.49l-1.4,1.94c-1.05,1.46-2.13,3-3.27,4.4-1.42-.6-2.85-1.13-4.29-1.6C42.65,34.88,43.64,33.75,44.6,32.65ZM41,30.55c1.48.12,2.84.15,4,.17L43.88,32c-1.05,1.21-2.15,2.44-3.26,3.64l-1.47-.47-2.64-.87c.93-.77,1.85-1.55,2.75-2.31Zm27.13-6.49c-.22,0-.42.07-.63.1a12,12,0,0,0-3.07-2.25,16,16,0,0,1,2.64.33,13.13,13.13,0,0,1,3.74,1.86A12.47,12.47,0,0,0,68.09,24.06Zm-4.44,4.69c-.33-.36-.66-.72-1-1.05a9.23,9.23,0,0,1,4.47-2.52c.36.37.73.75,1.1,1.16,1.27,1.39,2.43,2.87,3.56,4.38a15.74,15.74,0,0,0-4.42,2.61C66.19,31.76,65,30.21,63.65,28.75ZM61,29.39c.32-.36.64-.7,1-1l1,1c1.31,1.44,2.53,3,3.68,4.56l-.16.14A54.59,54.59,0,0,0,62,38.64a54.59,54.59,0,0,0-4.49-4.55L57.33,34A57.68,57.68,0,0,1,61,29.39Zm-5.29-3.05c.37-.41.74-.79,1.1-1.16A9.2,9.2,0,0,1,61.3,27.7c-.33.34-.66.68-1,1.05-1.33,1.46-2.54,3-3.72,4.58a15.71,15.71,0,0,0-4.42-2.62C53.29,29.21,54.46,27.72,55.72,26.34Zm1.21-4.1a16,16,0,0,1,2.64-.33,11.77,11.77,0,0,0-3.08,2.25c-.21,0-.41-.08-.64-.11a12.39,12.39,0,0,0-2.67,0A13.25,13.25,0,0,1,56.94,22.24Zm.7,2.17A9,9,0,0,1,62,22.11a9,9,0,0,1,4.34,2.3A10.29,10.29,0,0,0,62,27,10.29,10.29,0,0,0,57.63,24.41Zm-6,.88a14,14,0,0,1,4-.29l-.65.69a59.92,59.92,0,0,0-3.8,4.7,17.6,17.6,0,0,0-4.13-.58,52.39,52.39,0,0,1,4.15-4.18Zm21.07.35a52.39,52.39,0,0,1,4.15,4.18,18,18,0,0,0-4.13.58,59.92,59.92,0,0,0-3.8-4.7L68.29,25a14.11,14.11,0,0,1,4,.28ZM51.8,23.27l.54-.07.64-.12a20.71,20.71,0,0,0-1.75,1.32l-1.71.37L48.32,25A29.81,29.81,0,0,1,51.8,23.27Zm-5.45,3.07.7-.09c.91-.15,1.81-.36,2.68-.56h.06c-1.39,1.3-2.7,2.69-4,4.1h-.76c-1,0-2-.05-3-.11C43.44,28.51,44.87,27.39,46.35,26.35Zm35.56,3.31c-1.07.06-2.08.09-3,.11h-.76c-1.25-1.41-2.56-2.8-4-4.09h.07c.87.2,1.77.41,2.68.56l.7.09C79.09,27.39,80.52,28.51,81.91,29.66ZM75.63,25l-1.19-.26c-.56-.13-1.13-.26-1.71-.37q-.92-.76-1.75-1.32l.64.12.53.07A29.81,29.81,0,0,1,75.63,25ZM64.49,20.58l-1.48,0-1,0-1,0-1.49,0c.83-.26,1.68-.54,2.52-.83Q63.24,20.18,64.49,20.58ZM100,30.72l3.4,2c-1.44.81-2.89,1.63-4.35,2.42q-1.81-1.1-3.6-2.25l-.7-.46c1.47-.71,2.91-1.47,4.33-2.25Zm-47.12-21,2.86,1.64-3.21,1.83-1.13.64L48.5,12.19ZM42.26,15.79q1.39.8,2.86,1.59l-4.31,2.47c-1-.5-1.94-1-2.88-1.56ZM26.4,24.95c.93.54,1.88,1.07,2.86,1.6l-4.34,2.52-2.86-1.62Zm80.78,5.56-2.87,1.64-3.88-2.25-.45-.26q1.44-.8,2.86-1.63Zm-5.28-3.05C101,28,100,28.54,99,29.07L94.7,26.55c1-.52,1.93-1.06,2.86-1.6ZM96.6,24.4q-1.41.81-2.88,1.58l-4.3-2.5c1-.51,1.93-1,2.85-1.58Zm-5.29-3c-.93.53-1.89,1.06-2.88,1.56l-2.37-1.38-1.93-1.11c1-.5,1.92-1,2.84-1.58ZM86,18.3c-.93.54-1.9,1.06-2.88,1.56l-4.31-2.47c1-.52,1.93-1.06,2.86-1.59Zm-5.29-3.05c-.94.54-1.9,1.07-2.88,1.58l-4.29-2.46,2.85-1.62ZM0,35.79,62,71.57l62-35.79L62,0Z"/></g></g></svg>