<svg xmlns="http://www.w3.org/2000/svg" viewBox="0 0 66.22 86.53"><defs><style>.cls-1{fill:#252445;}</style></defs><title>qualityblue</title><g id="Layer_2" data-name="Layer 2"><g id="Layer_1-2" data-name="Layer 1"><path class="cls-1" d="M3.38,53.66H26.83l-.73,7.25H4.35M0,50.52l4.11,36h22l4.11-36Zm10.88-8V28.76q2.41-9.67,13.78-9.67h9.67a3.62,3.62,0,0,1,3.62-3.62V5.8H28.28a2.9,2.9,0,1,1,0-5.8H53.66a2.9,2.9,0,0,1,0,5.8H44v9.67a3.62,3.62,0,0,1,3.62,3.62h13.3V10.64A1.7,1.7,0,0,1,62.6,8.94h3.62v29H62.6a1.7,1.7,0,0,1-1.69-1.69V27.79H47.62A3.62,3.62,0,0,1,44,31.42h-6a3.62,3.62,0,0,1-3.62-3.62H24.65a4.35,4.35,0,0,0-4.35,4.35V42.54H10.88Z"/></g></g></svg>