<svg xmlns="http://www.w3.org/2000/svg" viewBox="0 0 699.25 53.42"><defs><style>.cls-1{fill:#24afc6;}</style></defs><title>water</title><g id="Layer_2" data-name="Layer 2"><g id="Layer_1-2" data-name="Layer 1"><path class="cls-1" d="M675.32,0c-5.16,12.5-14.42,20.88-25,20.88S630.43,12.5,625.27,0c-5.16,12.5-14.42,20.88-25,20.88S580.37,12.5,575.21,0c-5.16,12.5-14.42,20.88-25,20.88S530.32,12.5,525.16,0c-5.16,12.5-14.42,20.88-25,20.88S480.26,12.5,475.1,0c-5.16,12.5-14.42,20.88-25,20.88S430.21,12.5,425,0c-5.16,12.5-14.42,20.88-25,20.88S380.16,12.5,375,0c-5.16,12.5-14.42,20.88-25,20.88S330.1,12.5,324.94,0c-5.16,12.5-14.42,20.88-25,20.88S280,12.5,274.89,0c-5.16,12.5-14.42,20.88-25,20.88S230,12.5,224.83,0c-5.16,12.5-14.42,20.88-25,20.88S179.94,12.5,174.78,0c-5.16,12.5-14.42,20.88-25,20.88S129.89,12.5,124.73,0c-5.16,12.5-14.42,20.88-25,20.88S79.83,12.5,74.67,0c-5.16,12.5-14.42,20.88-25,20.88S29.78,12.5,24.62,0C19.52,12.34,10.43,20.64,0,20.86V53.42H699.25V20.83C689.11,20.27,680.3,12.07,675.32,0Z"/></g></g></svg>