<svg xmlns="http://www.w3.org/2000/svg" viewBox="0 0 75 75"><defs><style>.cls-1,.cls-2{fill:#039be5;}.cls-1{fill-rule:evenodd;}</style></defs><title>well1blue</title><g id="Layer_2" data-name="Layer 2"><g id="Layer_1-2" data-name="Layer 1"><path class="cls-1" d="M73.75,35h-2.5V31.25A1.25,1.25,0,0,0,70,30H67.5V20h6.25A1.25,1.25,0,0,0,75,18.41L70,.91A1.25,1.25,0,0,0,68.75,0H6.25A1.25,1.25,0,0,0,5,.91L0,18.41A1.25,1.25,0,0,0,1.25,20H7.5V30H5a1.25,1.25,0,1,0,0,2.5H7.5V73.75A1.25,1.25,0,0,0,8.75,75h5A1.25,1.25,0,0,0,15,73.75V32.5h5v1.25A1.25,1.25,0,0,0,21.25,35h5V50h-7.5a1.25,1.25,0,0,0-1.25,1.25V57.5H30V50H28.75V35h2.5V27.5h-10A1.25,1.25,0,0,0,20,28.75V30H15V20H60V30H55V28.75a1.25,1.25,0,0,0-1.25-1.25h-15V35h15A1.25,1.25,0,0,0,55,33.75V32.5h5V73.75A1.25,1.25,0,0,0,61.25,75h5a1.25,1.25,0,0,0,1.25-1.25V32.5h1.25v3.75A1.25,1.25,0,0,0,70,37.5h3.75a1.25,1.25,0,0,0,0-2.5ZM10,72.5h2.5v-40H10ZM10,30h2.5V20H10Zm52.5,0H65V20H62.5Zm0,42.5H65v-40H62.5Z"/><rect class="cls-2" x="33.75" y="27.5" width="2.5" height="7.5"/><rect class="cls-2" x="26.25" y="60" width="10" height="5"/><rect class="cls-2" x="32.5" y="50" width="10" height="7.5"/><rect class="cls-2" x="17.5" y="60" width="6.25" height="5"/><rect class="cls-2" x="32.5" y="67.5" width="10" height="7.5"/><rect class="cls-2" x="38.75" y="60" width="10" height="5"/><path class="cls-1" d="M45,67.5V75H56.25a1.25,1.25,0,0,0,1.25-1.25V67.5Z"/><path class="cls-1" d="M17.5,67.5v6.25A1.25,1.25,0,0,0,18.75,75H30V67.5Z"/><rect class="cls-2" x="51.25" y="60" width="6.25" height="5"/><path class="cls-1" d="M56.25,50H45v7.5H57.5V51.25A1.25,1.25,0,0,0,56.25,50"/></g></g></svg>